<svg xmlns="http://www.w3.org/2000/svg" width="1440" height="900"><path d="M641,502L545,677L872,792Z" fill="#4b98b1" stroke="#4b98b1" stroke-width="1.51"/><path d="M872,792L866,484L641,502Z" fill="#4395bd" stroke="#4395bd" stroke-width="1.51"/><path d="M545,677L616,965L872,792Z" fill="#45898f" stroke="#45898f" stroke-width="1.51"/><path d="M616,965L923,1033L872,792Z" fill="#2d707b" stroke="#2d707b" stroke-width="1.51"/><path d="M872,792L1179,537L866,484Z" fill="#298aab" stroke="#298aab" stroke-width="1.51"/><path d="M923,1033L1147,807L872,792Z" fill="#176a70" stroke="#176a70" stroke-width="1.51"/><path d="M1147,807L1179,537L872,792Z" fill="#087e84" stroke="#087e84" stroke-width="1.51"/><path d="M866,484L920,237L641,502Z" fill="#6ba7ce" stroke="#6ba7ce" stroke-width="1.51"/><path d="M1179,537L920,237L866,484Z" fill="#559bbb" stroke="#559bbb" stroke-width="1.51"/><path d="M545,677L292,939L616,965Z" fill="#618a8c" stroke="#618a8c" stroke-width="1.51"/><path d="M229,382L223,674L545,677Z" fill="#8db1d0" stroke="#8db1d0" stroke-width="1.51"/><path d="M229,382L545,677L641,502Z" fill="#86afd3" stroke="#86afd3" stroke-width="1.51"/><path d="M223,674L292,939L545,677Z" fill="#78a1a2" stroke="#78a1a2" stroke-width="1.51"/><path d="M616,965L934,1253L923,1033Z" fill="#2b6f7a" stroke="#2b6f7a" stroke-width="1.51"/><path d="M593,61L229,382L641,502Z" fill="#b1c2de" stroke="#b1c2de" stroke-width="1.51"/><path d="M923,1033L1244,1073L1147,807Z" fill="#04615b" stroke="#04615b" stroke-width="1.51"/><path d="M511,1297L934,1253L616,965Z" fill="#3e787f" stroke="#3e787f" stroke-width="1.51"/><path d="M920,237L593,61L641,502Z" fill="#97b9d9" stroke="#97b9d9" stroke-width="1.51"/><path d="M1179,537L1139,62L920,237Z" fill="#73a4b4" stroke="#73a4b4" stroke-width="1.51"/><path d="M1147,807L1370,656L1179,537Z" fill="#097877" stroke="#097877" stroke-width="1.51"/><path d="M1387,1040L1370,656L1147,807Z" fill="#015f4d" stroke="#015f4d" stroke-width="1.51"/><path d="M934,1253L1244,1073L923,1033Z" fill="#0e6565" stroke="#0e6565" stroke-width="1.51"/><path d="M292,939L511,1297L616,965Z" fill="#608386" stroke="#608386" stroke-width="1.51"/><path d="M229,382L91,437L223,674Z" fill="#a6c0dd" stroke="#a6c0dd" stroke-width="1.51"/><path d="M223,674L1,678L292,939Z" fill="#86a9a7" stroke="#86a9a7" stroke-width="1.51"/><path d="M182,190L91,437L229,382Z" fill="#cad0e6" stroke="#cad0e6" stroke-width="1.51"/><path d="M1370,656L1409,467L1179,537Z" fill="#257885" stroke="#257885" stroke-width="1.51"/><path d="M920,237L774,-104L593,61Z" fill="#adc7e0" stroke="#adc7e0" stroke-width="1.51"/><path d="M593,61L182,190L229,382Z" fill="#d4d3e7" stroke="#d4d3e7" stroke-width="1.51"/><path d="M1409,467L1139,62L1179,537Z" fill="#5c9499" stroke="#5c9499" stroke-width="1.51"/><path d="M292,939L308,1350L511,1297Z" fill="#6b8988" stroke="#6b8988" stroke-width="1.51"/><path d="M91,437L1,678L223,674Z" fill="#9bbbd2" stroke="#9bbbd2" stroke-width="1.51"/><path d="M-352,700L1,678L-379,436Z" fill="#9fbfd3" stroke="#9fbfd3" stroke-width="1.51"/><path d="M1244,1073L1387,1040L1147,807Z" fill="#015947" stroke="#015947" stroke-width="1.51"/><path d="M1370,656L1637,470L1409,467Z" fill="#286d7a" stroke="#286d7a" stroke-width="1.51"/><path d="M1240,1338L1387,1040L1244,1073Z" fill="#015544" stroke="#015544" stroke-width="1.51"/><path d="M1139,62L774,-104L920,237Z" fill="#9cbbd3" stroke="#9cbbd3" stroke-width="1.51"/><path d="M593,61L486,-214L182,190Z" fill="#e0dfee" stroke="#e0dfee" stroke-width="1.51"/><path d="M511,1297L1240,1338L934,1253Z" fill="#216b78" stroke="#216b78" stroke-width="1.51"/><path d="M-79,1104L308,1350L292,939Z" fill="#7a928d" stroke="#7a928d" stroke-width="1.51"/><path d="M934,1253L1240,1338L1244,1073Z" fill="#045f57" stroke="#045f57" stroke-width="1.51"/><path d="M308,1350L1240,1338L511,1297Z" fill="#3e787f" stroke="#3e787f" stroke-width="1.51"/><path d="M182,190L0,246L91,437Z" fill="#d7d8eb" stroke="#d7d8eb" stroke-width="1.51"/><path d="M-59,-177L0,246L182,190Z" fill="#f5ecf6" stroke="#f5ecf6" stroke-width="1.51"/><path d="M1409,467L1477,242L1139,62Z" fill="#6c9192" stroke="#6c9192" stroke-width="1.51"/><path d="M1637,470L1477,242L1409,467Z" fill="#497b81" stroke="#497b81" stroke-width="1.51"/><path d="M1356,-38L1165,-126L1139,62Z" fill="#8fb3ac" stroke="#8fb3ac" stroke-width="1.51"/><path d="M1139,62L1165,-126L774,-104Z" fill="#9abdca" stroke="#9abdca" stroke-width="1.51"/><path d="M554,-420L486,-214L774,-104Z" fill="#c9d6e9" stroke="#c9d6e9" stroke-width="1.51"/><path d="M774,-104L486,-214L593,61Z" fill="#c7d5e9" stroke="#c7d5e9" stroke-width="1.51"/><path d="M1,678L-79,1104L292,939Z" fill="#7f9790" stroke="#7f9790" stroke-width="1.51"/><path d="M-230,986L-79,1104L1,678Z" fill="#829b92" stroke="#829b92" stroke-width="1.51"/><path d="M1703,750L1637,470L1370,656Z" fill="#14666a" stroke="#14666a" stroke-width="1.51"/><path d="M1737,101L1356,-38L1477,242Z" fill="#7b928e" stroke="#7b928e" stroke-width="1.51"/><path d="M1477,242L1356,-38L1139,62Z" fill="#82a19b" stroke="#82a19b" stroke-width="1.51"/><path d="M1387,1040L1703,750L1370,656Z" fill="#015443" stroke="#015443" stroke-width="1.51"/><path d="M1757,1022L1703,750L1387,1040Z" fill="#014636" stroke="#014636" stroke-width="1.51"/><path d="M-79,1104L-67,1245L308,1350Z" fill="#7f9891" stroke="#7f9891" stroke-width="1.51"/><path d="M1217,-448L876,-320L1165,-126Z" fill="#95bbc0" stroke="#95bbc0" stroke-width="1.51"/><path d="M1165,-126L876,-320L774,-104Z" fill="#a2c1d7" stroke="#a2c1d7" stroke-width="1.51"/><path d="M-79,1104L-211,1351L-67,1245Z" fill="#829b92" stroke="#829b92" stroke-width="1.51"/><path d="M-352,700L-230,986L1,678Z" fill="#8db0a6" stroke="#8db0a6" stroke-width="1.51"/><path d="M486,-214L187,-215L182,190Z" fill="#ede7f2" stroke="#ede7f2" stroke-width="1.51"/><path d="M228,-386L187,-215L486,-214Z" fill="#ece7f2" stroke="#ece7f2" stroke-width="1.51"/><path d="M1744,1322L1757,1022L1387,1040Z" fill="#014636" stroke="#014636" stroke-width="1.51"/><path d="M-379,436L91,437L0,246Z" fill="#cad7e9" stroke="#cad7e9" stroke-width="1.51"/><path d="M-379,436L1,678L91,437Z" fill="#acc8e1" stroke="#acc8e1" stroke-width="1.51"/><path d="M876,-320L554,-420L774,-104Z" fill="#b6cee5" stroke="#b6cee5" stroke-width="1.51"/><path d="M308,1350L1541,1424L1240,1338Z" fill="#0f6566" stroke="#0f6566" stroke-width="1.51"/><path d="M1240,1338L1541,1424L1387,1040Z" fill="#014b3b" stroke="#014b3b" stroke-width="1.51"/><path d="M-345,255L-379,436L0,246Z" fill="#d8dcec" stroke="#d8dcec" stroke-width="1.51"/><path d="M1637,470L1737,101L1477,242Z" fill="#648587" stroke="#648587" stroke-width="1.51"/><path d="M1407,-451L1217,-448L1165,-126Z" fill="#8db0a6" stroke="#8db0a6" stroke-width="1.51"/><path d="M1703,750L1737,101L1637,470Z" fill="#3b777f" stroke="#3b777f" stroke-width="1.51"/><path d="M1757,1022L1737,101L1703,750Z" fill="#14666a" stroke="#14666a" stroke-width="1.51"/><path d="M-59,-177L-345,255L0,246Z" fill="#f6edf5" stroke="#f6edf5" stroke-width="1.51"/><path d="M187,-215L-59,-177L182,190Z" fill="#f9f1f8" stroke="#f9f1f8" stroke-width="1.51"/><path d="M7,-502L-59,-177L187,-215Z" fill="#fcf4f9" stroke="#fcf4f9" stroke-width="1.51"/><path d="M-352,700L-211,1351L-230,986Z" fill="#829b92" stroke="#829b92" stroke-width="1.51"/><path d="M-230,986L-211,1351L-79,1104Z" fill="#829b92" stroke="#829b92" stroke-width="1.51"/><path d="M-67,1245L-211,1351L308,1350Z" fill="#829a92" stroke="#829a92" stroke-width="1.51"/><path d="M308,1350L-211,1351L1541,1424Z" fill="#577f84" stroke="#577f84" stroke-width="1.51"/><path d="M554,-420L228,-386L486,-214Z" fill="#e0e0ee" stroke="#e0e0ee" stroke-width="1.51"/><path d="M1541,1424L1744,1322L1387,1040Z" fill="#014636" stroke="#014636" stroke-width="1.51"/><path d="M876,-320L1217,-448L554,-420Z" fill="#a7c3de" stroke="#a7c3de" stroke-width="1.51"/><path d="M1407,-451L1165,-126L1356,-38Z" fill="#8aaaa1" stroke="#8aaaa1" stroke-width="1.51"/><path d="M1760,-163L1407,-451L1356,-38Z" fill="#829b92" stroke="#829b92" stroke-width="1.51"/><path d="M1737,101L1760,-163L1356,-38Z" fill="#829b92" stroke="#829b92" stroke-width="1.51"/><path d="M1757,1022L1760,-163L1737,101Z" fill="#5b8185" stroke="#5b8185" stroke-width="1.51"/><path d="M-345,255L-354,-147L-379,436Z" fill="#ede7f2" stroke="#ede7f2" stroke-width="1.51"/><path d="M-59,-177L-354,-147L-345,255Z" fill="#fff7fb" stroke="#fff7fb" stroke-width="1.51"/><path d="M-393,-513L-354,-147L-59,-177Z" fill="#fff7fb" stroke="#fff7fb" stroke-width="1.51"/><path d="M228,-386L7,-502L187,-215Z" fill="#f7eff6" stroke="#f7eff6" stroke-width="1.51"/><path d="M554,-420L7,-502L228,-386Z" fill="#efe8f3" stroke="#efe8f3" stroke-width="1.51"/><path d="M1217,-448L7,-502L554,-420Z" fill="#cbd7e9" stroke="#cbd7e9" stroke-width="1.51"/><path d="M1780,-514L7,-502L1217,-448Z" fill="#9cbecd" stroke="#9cbecd" stroke-width="1.51"/><path d="M1407,-451L1780,-514L1217,-448Z" fill="#829b92" stroke="#829b92" stroke-width="1.51"/><path d="M1760,-163L1780,-514L1407,-451Z" fill="#829b92" stroke="#829b92" stroke-width="1.51"/><path d="M1757,1022L1780,-514L1760,-163Z" fill="#79918d" stroke="#79918d" stroke-width="1.51"/><path d="M7,-502L-393,-513L-59,-177Z" fill="#fff7fb" stroke="#fff7fb" stroke-width="1.51"/><path d="M-354,-147L-393,-513L-379,436Z" fill="#fff7fb" stroke="#fff7fb" stroke-width="1.51"/><path d="M1780,-514L-393,-513L7,-502Z" fill="#dcdeee" stroke="#dcdeee" stroke-width="1.51"/></svg>